<?xml version="1.0" encoding="utf-8"?>
<svg height="76.322624pt" version="1.1" viewBox="0 0 656.001343 76.322624" width="656.001343pt" xmlns="http://www.w3.org/2000/svg" xmlns:xlink="http://www.w3.org/1999/xlink">
<defs>
<clipPath id="clip1">
<path d="M 0 0 L 76 0 L 76 76.324219 L 0 76.324219 Z M 0 0 "/>
</clipPath>
</defs>
<g id="surface1">
<path d="M 211.902344 41.558594 L 185.914063 41.558594 L 185.914063 55.316406 L 215.535156 55.316406 L 215.535156 64.9375 L 174.988281 64.9375 L 174.988281 11.433594 L 214.226563 11.433594 L 214.226563 20.90625 L 185.914063 20.90625 L 185.914063 32.269531 L 211.902344 32.269531 Z M 211.902344 41.558594 " style=" stroke:none;fill-rule:nonzero;fill:white;fill-opacity:1;"/>
<path d="M 263.121094 11.433594 L 263.121094 20.90625 L 247.113281 20.90625 L 247.113281 64.9375 L 235.859375 64.9375 L 235.859375 20.90625 L 219.78125 20.90625 L 219.78125 11.433594 Z M 263.121094 11.433594 " style=" stroke:none;fill-rule:nonzero;fill:white;fill-opacity:1;"/>
<path d="M 301.597656 64.9375 L 301.597656 41.050781 L 280.6875 41.050781 L 280.6875 64.9375 L 269.617188 64.9375 L 269.617188 11.433594 L 280.6875 11.433594 L 280.6875 31.832031 L 301.597656 31.832031 L 301.597656 11.433594 L 312.703125 11.433594 L 312.703125 64.9375 Z M 301.597656 64.9375 " style=" stroke:none;fill-rule:nonzero;fill:white;fill-opacity:1;"/>
<path d="M 360.652344 41.558594 L 334.664063 41.558594 L 334.664063 55.316406 L 364.28125 55.316406 L 364.28125 64.9375 L 323.738281 64.9375 L 323.738281 11.433594 L 362.976563 11.433594 L 362.976563 20.90625 L 334.664063 20.90625 L 334.664063 32.269531 L 360.652344 32.269531 Z M 360.652344 41.558594 " style=" stroke:none;fill-rule:nonzero;fill:white;fill-opacity:1;"/>
<path d="M 395.714844 43.957031 L 384.171875 43.957031 L 384.171875 64.9375 L 373.246094 64.9375 L 373.246094 11.433594 L 399.492188 11.433594 C 403.242188 11.503906 406.121094 11.964844 408.128906 12.8125 C 410.164063 13.660156 411.882813 14.90625 413.285156 16.550781 C 414.445313 17.90625 415.367188 19.40625 416.042969 21.050781 C 416.71875 22.695313 417.058594 24.574219 417.058594 26.679688 C 417.058594 29.21875 416.417969 31.722656 415.136719 34.191406 C 413.851563 36.636719 411.734375 38.367188 408.785156 39.382813 C 411.25 40.375 412.992188 41.789063 414.011719 43.628906 C 415.050781 45.445313 415.570313 48.226563 415.570313 51.976563 L 415.570313 55.570313 C 415.570313 58.015625 415.667969 59.671875 415.863281 60.542969 C 416.152344 61.921875 416.828125 62.9375 417.894531 63.59375 L 417.894531 64.9375 L 405.589844 64.9375 C 405.25 63.75 405.007813 62.792969 404.863281 62.066406 C 404.574219 60.566406 404.414063 59.03125 404.390625 57.457031 L 404.320313 52.484375 C 404.269531 49.074219 403.640625 46.800781 402.429688 45.660156 C 401.246094 44.523438 399.007813 43.957031 395.714844 43.957031 Z M 402.503906 34.226563 C 404.730469 33.210938 405.84375 31.203125 405.84375 28.203125 C 405.84375 24.960938 404.765625 22.78125 402.613281 21.667969 C 401.402344 21.039063 399.589844 20.726563 397.167969 20.726563 L 384.171875 20.726563 L 384.171875 35.097656 L 396.839844 35.097656 C 399.359375 35.097656 401.246094 34.808594 402.503906 34.226563 Z M 402.503906 34.226563 " style=" stroke:none;fill-rule:nonzero;fill:white;fill-opacity:1;"/>
<path d="M 467.148438 11.433594 L 449.253906 44.828125 L 449.253906 64.9375 L 438.074219 64.9375 L 438.074219 44.828125 L 419.5625 11.433594 L 432.738281 11.433594 L 443.847656 34.734375 L 454.484375 11.433594 Z M 467.148438 11.433594 " style=" stroke:none;fill-rule:nonzero;fill:white;fill-opacity:1;"/>
<path d="M 469.066406 11.414063 L 508.019531 11.414063 L 508.019531 15.722656 L 491.070313 15.722656 L 491.070313 64.9375 L 486.015625 64.9375 L 486.015625 15.722656 L 469.066406 15.722656 Z M 469.066406 11.414063 " style=" stroke:none;fill-rule:nonzero;fill:white;fill-opacity:1;"/>
<path d="M 515.203125 64.9375 L 515.203125 11.414063 L 550.8125 11.414063 L 550.8125 15.722656 L 520.257813 15.722656 L 520.257813 35.050781 L 547.839844 35.050781 L 547.839844 39.363281 L 520.257813 39.363281 L 520.257813 60.625 L 551.554688 60.625 L 551.554688 64.9375 Z M 515.203125 64.9375 " style=" stroke:none;fill-rule:nonzero;fill:white;fill-opacity:1;"/>
<path d="M 598.636719 26.949219 C 597.59375 22.390625 595.664063 19.144531 592.835938 17.210938 C 590.011719 15.277344 586.320313 14.3125 581.761719 14.3125 C 578.539063 14.3125 575.765625 14.957031 573.4375 16.246094 C 571.105469 17.53125 569.171875 19.265625 567.636719 21.449219 C 566.152344 23.628906 565.035156 26.15625 564.292969 29.03125 C 563.597656 31.855469 563.25 34.855469 563.25 38.027344 C 563.25 41 563.546875 43.921875 564.144531 46.796875 C 564.789063 49.671875 565.828125 52.25 567.265625 54.527344 C 568.703125 56.757813 570.636719 58.566406 573.0625 59.957031 C 575.492188 61.34375 578.539063 62.035156 582.207031 62.035156 C 584.488281 62.035156 586.570313 61.664063 588.453125 60.921875 C 590.335938 60.179688 591.96875 59.164063 593.359375 57.875 C 594.796875 56.535156 595.984375 54.972656 596.925781 53.191406 C 597.917969 51.40625 598.660156 49.449219 599.15625 47.316406 L 604.433594 47.316406 C 603.839844 49.894531 602.972656 52.347656 601.832031 54.675781 C 600.691406 56.957031 599.179688 58.964844 597.296875 60.699219 C 595.464844 62.433594 593.210938 63.820313 590.535156 64.863281 C 587.90625 65.851563 584.808594 66.347656 581.242188 66.347656 C 577.128906 66.347656 573.609375 65.605469 570.683594 64.117188 C 567.761719 62.582031 565.359375 60.523438 563.472656 57.949219 C 561.640625 55.371094 560.300781 52.398438 559.460938 49.027344 C 558.617188 45.609375 558.195313 41.988281 558.195313 38.175781 C 558.195313 33.070313 558.816406 28.734375 560.054688 25.164063 C 561.34375 21.597656 563.101563 18.699219 565.332031 16.46875 C 567.5625 14.1875 570.191406 12.550781 573.210938 11.5625 C 576.234375 10.519531 579.53125 10 583.101563 10 C 585.824219 10 588.351563 10.371094 590.683594 11.113281 C 593.0625 11.808594 595.140625 12.875 596.925781 14.3125 C 598.761719 15.75 600.246094 17.53125 601.386719 19.664063 C 602.578125 21.746094 603.394531 24.171875 603.839844 26.949219 Z M 598.636719 26.949219 " style=" stroke:none;fill-rule:nonzero;fill:white;fill-opacity:1;"/>
<path d="M 614.222656 64.9375 L 614.222656 11.414063 L 619.277344 11.414063 L 619.277344 34.382813 L 650.945313 34.382813 L 650.945313 11.414063 L 656 11.414063 L 656 64.9375 L 650.945313 64.9375 L 650.945313 38.695313 L 619.277344 38.695313 L 619.277344 64.9375 Z M 614.222656 64.9375 " style=" stroke:none;fill-rule:nonzero;fill:white;fill-opacity:1;"/>
<g clip-path="url(#clip1)" clip-rule="nonzero">
<path d="M 16 38.324219 C 16 26.171875 25.851563 16.324219 38 16.324219 C 45.839844 16.324219 52.722656 20.421875 56.617188 26.597656 C 58.230469 20.898438 60.988281 15.679688 64.625 11.207031 C 57.769531 4.476563 48.367188 0.324219 38 0.324219 C 17.011719 0.324219 0 17.335938 0 38.324219 C 0 59.308594 17.011719 76.324219 38 76.324219 C 58.988281 76.324219 76 59.308594 76 38.324219 C 76 29.53125 73.015625 21.433594 68 14.996094 C 62.984375 21.433594 60 29.53125 60 38.324219 C 60 50.472656 50.148438 60.324219 38 60.324219 C 25.851563 60.324219 16 50.472656 16 38.324219 Z M 16 38.324219 " style=" stroke:none;fill-rule:evenodd;fill:rgb(2.915955%,53.399658%,100%);fill-opacity:1;"/>
<path d="M 16 38.324219 C 16 26.171875 25.851563 16.324219 38 16.324219 C 45.839844 16.324219 52.722656 20.421875 56.617188 26.597656 C 58.230469 20.898438 60.988281 15.679688 64.625 11.207031 C 57.769531 4.476563 48.367188 0.324219 38 0.324219 C 17.011719 0.324219 0 17.335938 0 38.324219 C 0 59.308594 17.011719 76.324219 38 76.324219 C 58.988281 76.324219 76 59.308594 76 38.324219 C 76 29.53125 73.015625 21.433594 68 14.996094 C 62.984375 21.433594 60 29.53125 60 38.324219 C 60 50.472656 50.148438 60.324219 38 60.324219 C 25.851563 60.324219 16 50.472656 16 38.324219 Z M 16 38.324219 " style=" stroke:none;fill-rule:evenodd;fill:rgb(2.915955%,53.399658%,100%);fill-opacity:1;"/>
</g>
<path d="M 71.375 65.113281 C 78.230469 71.847656 87.632813 76 98 76 C 118.988281 76 136 58.988281 136 38 C 136 17.011719 118.988281 0 98 0 C 77.011719 0 60 17.011719 60 38 C 60 46.792969 62.984375 54.886719 68 61.328125 C 73.011719 54.890625 76 46.796875 76 38.007813 C 76 38.003906 76 38.003906 76 38 C 76 25.851563 85.851563 16 98 16 C 110.148438 16 120 25.851563 120 38 C 120 50.148438 110.148438 60 98 60 C 90.160156 60 83.277344 55.898438 79.382813 49.726563 C 77.769531 55.425781 75.011719 60.640625 71.375 65.113281 Z M 71.375 65.113281 " style=" stroke:none;fill-rule:evenodd;fill:rgb(2.915955%,53.399658%,100%);fill-opacity:1;"/>
<path d="M 9 38.324219 C 9 33.90625 12.582031 30.324219 17 30.324219 L 47 30.324219 C 51.417969 30.324219 55 33.90625 55 38.324219 C 55 42.742188 51.417969 46.324219 47 46.324219 L 17 46.324219 C 12.582031 46.324219 9 42.742188 9 38.324219 Z M 9 38.324219 " style=" stroke:none;fill-rule:evenodd;fill:rgb(2.915955%,53.399658%,100%);fill-opacity:1;"/>
</g>
</svg>